<svg width="32" height="32" viewBox="0 0 32 32" fill="none" xmlns="http://www.w3.org/2000/svg">
<path fill-rule="evenodd" clip-rule="evenodd" d="M18.6667 4.00008C18.6667 3.2637 19.2636 2.66675 20 2.66675C22.4753 2.66675 24.8493 3.65008 26.5997 5.40042C28.35 7.15076 29.3333 9.52473 29.3333 12.0001C29.3333 12.7365 28.7364 13.3334 28 13.3334C27.2636 13.3334 26.6667 12.7365 26.6667 12.0001C26.6667 10.232 25.9643 8.53628 24.714 7.28604C23.4638 6.03579 21.7681 5.33341 20 5.33341C19.2636 5.33341 18.6667 4.73646 18.6667 4.00008ZM6.66666 6.66675C6.31303 6.66675 5.9739 6.80722 5.72385 7.05727C5.48187 7.29925 5.3425 7.62467 5.33376 7.9659C5.64042 12.8245 7.70878 17.405 11.1519 20.8482C14.595 24.2913 19.1756 26.3597 24.0342 26.6663C24.3754 26.6576 24.7008 26.5182 24.9428 26.2762C25.1928 26.0262 25.3333 25.687 25.3333 25.3334V20.9028L20.5591 18.9931L19.1433 21.3527C18.7863 21.9478 18.0326 22.1695 17.4102 21.8626C14.2516 20.3048 11.6953 17.7484 10.1375 14.5898C9.83058 13.9675 10.0523 13.2138 10.6473 12.8568L13.007 11.441L11.0973 6.66675H6.66666ZM3.83823 5.17165C4.58837 4.42151 5.60579 4.00008 6.66666 4.00008H12C12.5452 4.00008 13.0355 4.33202 13.238 4.83823L15.9046 11.5049C16.1477 12.1125 15.9138 12.8067 15.3527 13.1434L13.1207 14.4826C14.2191 16.2741 15.726 17.7809 17.5175 18.8794L18.8567 16.6474C19.1934 16.0863 19.8876 15.8524 20.4952 16.0954L27.1618 18.7621C27.6681 18.9646 28 19.4549 28 20.0001V25.3334C28 26.3943 27.5786 27.4117 26.8284 28.1618C26.0783 28.912 25.0609 29.3334 24 29.3334C23.973 29.3334 23.946 29.3326 23.9191 29.331C18.3931 28.9951 13.181 26.6485 9.26629 22.7338C5.35158 18.8191 3.00493 13.607 2.66911 8.08096C2.66748 8.05403 2.66666 8.02706 2.66666 8.00008C2.66666 6.93922 3.08808 5.9218 3.83823 5.17165ZM18.6667 9.33341C18.6667 8.59703 19.2636 8.00008 20 8.00008C21.0609 8.00008 22.0783 8.42151 22.8284 9.17165C23.5786 9.9218 24 10.9392 24 12.0001C24 12.7365 23.403 13.3334 22.6667 13.3334C21.9303 13.3334 21.3333 12.7365 21.3333 12.0001C21.3333 11.6465 21.1928 11.3073 20.9428 11.0573C20.6927 10.8072 20.3536 10.6667 20 10.6667C19.2636 10.6667 18.6667 10.0698 18.6667 9.33341Z" fill="#71BF44"/>
</svg>
