<svg width="32" height="32" viewBox="0 0 32 32" fill="none" xmlns="http://www.w3.org/2000/svg">
<path fill-rule="evenodd" clip-rule="evenodd" d="M2.66663 7.99992C2.66663 6.52716 3.86053 5.33325 5.33329 5.33325H26.6666C28.1394 5.33325 29.3333 6.52716 29.3333 7.99992V23.9999C29.3333 25.4727 28.1394 26.6666 26.6666 26.6666H5.33329C3.86053 26.6666 2.66663 25.4727 2.66663 23.9999V7.99992ZM26.6666 7.99992H5.33329V23.9999H26.6666V7.99992Z" fill="#71BF44"/>
<path fill-rule="evenodd" clip-rule="evenodd" d="M2.86229 7.97127C3.24627 7.34293 4.06693 7.14484 4.69526 7.52882L16 14.4373L27.3047 7.52882C27.9331 7.14484 28.7537 7.34293 29.1377 7.97127C29.5217 8.59961 29.3236 9.42026 28.6953 9.80424L16 17.5625L3.30473 9.80424C2.67639 9.42026 2.4783 8.59961 2.86229 7.97127Z" fill="#71BF44"/>
</svg>
