<svg width="124" height="124" viewBox="0 0 124 124" fill="none" xmlns="http://www.w3.org/2000/svg">
<path fill-rule="evenodd" clip-rule="evenodd" d="M48.1006 32.6646C51.7192 29.0461 56.6269 27.0132 61.7443 27.0132C66.8617 27.0132 71.7695 29.0461 75.388 32.6646C79.0066 36.2831 81.0394 41.1909 81.0394 46.3083C81.0394 51.4257 79.0066 56.3334 75.388 59.952C75.1022 60.2378 74.8083 60.5138 74.5069 60.7796C77.5058 62.2135 80.2694 64.1556 82.6647 66.5508C88.2131 72.0992 91.3301 79.6245 91.3301 87.4712V92.6165C91.3301 94.7478 89.6024 96.4755 87.4711 96.4755C85.3399 96.4755 83.6121 94.7478 83.6121 92.6165V87.4712C83.6121 81.6715 81.3082 76.1093 77.2072 72.0083C73.1062 67.9073 67.544 65.6034 61.7443 65.6034C55.9446 65.6034 50.3825 67.9073 46.2815 72.0083C42.1805 76.1093 39.8765 81.6715 39.8765 87.4712V92.6165C39.8765 94.7478 38.1488 96.4755 36.0175 96.4755C33.8862 96.4755 32.1585 94.7478 32.1585 92.6165V87.4712C32.1585 79.6245 35.2756 72.0992 40.824 66.5508C43.2192 64.1556 45.9829 62.2135 48.9818 60.7796C48.6804 60.5138 48.3865 60.2378 48.1006 59.952C44.4821 56.3334 42.4492 51.4257 42.4492 46.3083C42.4492 41.1909 44.4821 36.2831 48.1006 32.6646ZM61.7443 34.7312C58.6739 34.7312 55.7292 35.9509 53.5581 38.1221C51.387 40.2932 50.1673 43.2379 50.1673 46.3083C50.1673 49.3787 51.387 52.3234 53.5581 54.4945C55.7292 56.6656 58.6739 57.8853 61.7443 57.8853C64.8148 57.8853 67.7594 56.6656 69.9305 54.4945C72.1017 52.3234 73.3214 49.3787 73.3214 46.3083C73.3214 43.2379 72.1017 40.2932 69.9305 38.1221C67.7594 35.9509 64.8148 34.7312 61.7443 34.7312ZM10.5761 51.739C13.2297 49.0854 16.8287 47.5946 20.5814 47.5946C24.3342 47.5946 27.9332 49.0854 30.5868 51.739C33.2404 54.3926 34.7312 57.9916 34.7312 61.7444C34.7312 65.4971 33.2404 69.0961 30.5868 71.7497C27.9332 74.4033 24.3342 75.8941 20.5814 75.8941C17.511 75.8941 14.5663 77.1138 12.3952 79.2849C10.2241 81.4561 9.00439 84.4007 9.00439 87.4712V92.6165C9.00439 94.7478 7.27664 96.4755 5.14537 96.4755C3.01409 96.4755 1.28635 94.7478 1.28635 92.6165V87.4712C1.28635 82.3538 3.31922 77.446 6.93775 73.8275C7.90981 72.8554 8.97492 71.9978 10.1121 71.2632C7.74935 68.6647 6.43171 65.2725 6.43171 61.7444C6.43171 57.9916 7.92248 54.3926 10.5761 51.739ZM20.5814 55.3127C18.8757 55.3127 17.2397 55.9903 16.0335 57.1965C14.8274 58.4026 14.1497 60.0386 14.1497 61.7444C14.1497 63.4502 14.8274 65.0861 16.0335 66.2923C17.2397 67.4984 18.8757 68.1761 20.5814 68.1761C22.2872 68.1761 23.9232 67.4984 25.1293 66.2923C26.3355 65.0861 27.0131 63.4502 27.0131 61.7444C27.0131 60.0386 26.3355 58.4026 25.1293 57.1965C23.9232 55.9903 22.2872 55.3127 20.5814 55.3127ZM92.9018 51.739C95.5554 49.0854 99.1545 47.5946 102.907 47.5946C106.66 47.5946 110.259 49.0854 112.913 51.739C115.566 54.3926 117.057 57.9916 117.057 61.7444C117.057 65.2725 115.739 68.6647 113.377 71.2632C114.514 71.9978 115.579 72.8554 116.551 73.8275C120.169 77.446 122.202 82.3538 122.202 87.4712V92.6165C122.202 94.7478 120.475 96.4755 118.343 96.4755C116.212 96.4755 114.484 94.7478 114.484 92.6165V87.4712C114.484 84.4007 113.265 81.4561 111.093 79.2849C108.922 77.1138 105.978 75.8941 102.907 75.8941C99.1545 75.8941 95.5554 74.4033 92.9018 71.7497C90.2482 69.0961 88.7575 65.4971 88.7575 61.7444C88.7575 57.9916 90.2482 54.3926 92.9018 51.739ZM102.907 68.1761C104.613 68.1761 106.249 67.4984 107.455 66.2923C108.661 65.0861 109.339 63.4501 109.339 61.7444C109.339 60.0386 108.661 58.4026 107.455 57.1965C106.249 55.9903 104.613 55.3127 102.907 55.3127C101.201 55.3127 99.5655 55.9903 98.3593 57.1965C97.1531 58.4026 96.4755 60.0386 96.4755 61.7444C96.4755 63.4501 97.1531 65.0861 98.3593 66.2923C99.5655 67.4984 101.201 68.1761 102.907 68.1761Z" fill="#8BDD5C"/>
</svg>
