<svg width="124" height="124" viewBox="0 0 124 124" fill="none" xmlns="http://www.w3.org/2000/svg">
<path d="M100.335 50.1672C104.427 50.1621 108.35 48.5342 111.244 45.6404C114.138 42.7467 115.765 38.8235 115.771 34.7311V23.1541H104.194C100.242 23.1599 96.4457 24.6886 93.5928 27.4221C91.5937 23.7948 88.6587 20.7696 85.0935 18.6615C81.5283 16.5535 77.4632 15.4397 73.3214 15.436H61.7443V27.0131C61.7515 33.1518 64.1932 39.0369 68.5339 43.3776C72.8746 47.7183 78.7598 50.1601 84.8984 50.1672H88.7575V100.334H42.4492V81.0394H46.3082C50.4006 81.0343 54.3238 79.4063 57.2176 76.5126C60.1113 73.6189 61.7392 69.6956 61.7443 65.6033V54.0262H50.1673C46.2162 54.0321 42.4194 55.5607 39.5665 58.2943C37.5674 54.6669 34.6324 51.6417 31.0672 49.5337C27.502 47.4257 23.4369 46.3118 19.2951 46.3082H7.71805V57.8853C7.7252 64.0239 10.1669 69.9091 14.5076 74.2498C18.8483 78.5905 24.7335 81.0322 30.8722 81.0394H34.7312V100.334H7.71805V108.053H115.771V100.334H96.4755V50.1672H100.335ZM96.4755 38.5902C96.4775 36.5438 97.2913 34.5819 98.7383 33.1349C100.185 31.688 102.147 30.8742 104.194 30.8721H108.053V34.7311C108.051 36.7775 107.237 38.7394 105.79 40.1864C104.343 41.6333 102.381 42.4471 100.335 42.4492H96.4755V38.5902ZM42.4492 69.4623C42.4513 67.416 43.2651 65.4541 44.712 64.0071C46.159 62.5601 48.1209 61.7463 50.1673 61.7443H54.0263V65.6033C54.0242 67.6496 53.2104 69.6115 51.7635 71.0585C50.3165 72.5055 48.3546 73.3193 46.3082 73.3213H42.4492V69.4623ZM34.7312 73.3213H30.8722C26.7798 73.3162 22.8566 71.6883 19.9628 68.7946C17.0691 65.9008 15.4412 61.9776 15.4361 57.8853V54.0262H19.2951C23.3874 54.0313 27.3107 55.6593 30.2044 58.553C33.0981 61.4467 34.7261 65.37 34.7312 69.4623V73.3213ZM88.7575 42.4492H84.8984C80.8061 42.4441 76.8828 40.8161 73.9891 37.9224C71.0954 35.0287 69.4675 31.1054 69.4624 27.0131V23.1541H73.3214C77.4137 23.1592 81.337 24.7871 84.2307 27.6808C87.1244 30.5746 88.7523 34.4978 88.7575 38.5902V42.4492Z" fill="#8BDD5C"/>
</svg>
