<svg width="116" height="116" viewBox="0 0 116 116" fill="none" xmlns="http://www.w3.org/2000/svg">
<path d="M72.2329 90.2911H97.5144V97.5144H72.2329V90.2911ZM79.4562 104.738H90.2911V111.961H79.4562V104.738ZM97.5144 83.0679H90.2911C90.2911 79.095 91.7358 75.8446 94.6251 72.9552L96.4309 71.1494C99.3203 68.2601 101.126 63.9261 101.126 59.5922C101.126 50.563 93.9028 43.3397 84.8737 43.3397C75.8446 43.3397 68.6213 50.563 68.6213 59.5922C68.6213 63.9261 70.4271 67.8989 73.3164 71.1494L75.1222 72.9552C78.0116 75.8446 79.4562 79.095 79.4562 83.0679H72.2329C72.2329 81.262 71.5106 79.4562 70.0659 78.0116L68.2601 76.2057C63.9261 71.8717 61.398 65.732 61.398 59.5922C61.398 46.5902 71.8718 36.1165 84.8737 36.1165C97.8756 36.1165 108.349 46.5902 108.349 59.5922C108.349 65.732 105.821 71.8717 101.487 76.2057L99.6814 78.0116C98.2368 79.4562 97.5144 81.262 97.5144 83.0679ZM21.6699 79.4562H50.563V86.6795H21.6699V79.4562Z" fill="#8BDD5C"/>
<path d="M43.3397 72.2329C45.3344 72.2329 46.9514 70.6159 46.9514 68.6213C46.9514 66.6266 45.3344 65.0096 43.3397 65.0096C41.3451 65.0096 39.7281 66.6266 39.7281 68.6213C39.7281 70.6159 41.3451 72.2329 43.3397 72.2329Z" fill="#8BDD5C"/>
<path d="M21.6699 65.0096H32.5048V72.2329H21.6699V65.0096ZM21.6699 50.563H46.9514V57.7863H21.6699V50.563ZM36.1165 36.1165H61.398V43.3397H36.1165V36.1165Z" fill="#8BDD5C"/>
<path d="M25.2815 43.3397C27.2762 43.3397 28.8932 41.7228 28.8932 39.7281C28.8932 37.7334 27.2762 36.1165 25.2815 36.1165C23.2869 36.1165 21.6699 37.7334 21.6699 39.7281C21.6699 41.7228 23.2869 43.3397 25.2815 43.3397Z" fill="#8BDD5C"/>
<path d="M57.7863 21.6699H72.2329V28.8932H57.7863V21.6699Z" fill="#8BDD5C"/>
<path d="M46.9514 28.8932C48.9461 28.8932 50.563 27.2762 50.563 25.2816C50.563 23.2869 48.9461 21.6699 46.9514 21.6699C44.9567 21.6699 43.3398 23.2869 43.3398 25.2816C43.3398 27.2762 44.9567 28.8932 46.9514 28.8932Z" fill="#8BDD5C"/>
<path d="M21.6699 21.6699H36.1165V28.8932H21.6699V21.6699Z" fill="#8BDD5C"/>
<path d="M65.0096 101.126H14.4466V14.4466H79.4562V28.8931H86.6795V14.4466C86.6795 10.4737 83.429 7.22327 79.4562 7.22327H14.4466C10.4738 7.22327 7.22329 10.4737 7.22329 14.4466V101.126C7.22329 105.099 10.4738 108.349 14.4466 108.349H65.0096V101.126Z" fill="#8BDD5C"/>
</svg>
